# xmcd
#
# Track frame offsets:
#	150
#	15971
#	30650
#	46663
#	62402
#	76028
#	88292
#	97283
#	107612
#	124224
#	134083
#	158452
#
# Disc length: 2242 seconds
#
# Revision: 0
# Processed by: cddbd v1.4PL0 Copyright (c) Steve Scherf et al.
# Submitted via: audiograbber 1.81.03
#
DISCID=8d08c00c
DTITLE="Hurricane" Mike Thompson - Voices From Other Rooms
DYEAR=2000
DGENRE=Blues
TTITLE0=Wild About My Lovin'
TTITLE1=Cocaine Blues
TTITLE2=I Can't Be Satisfied
TTITLE3=Broke Down Engine
TTITLE4=I Guess It Doesn't Matter Anymore
TTITLE5=Hurricane's Reel
TTITLE6=Memphis Rag
TTITLE7=Drop Down Mama
TTITLE8=Sugar Babe
TTITLE9=Holland River Rag
TTITLE10=When You Got A Good Friend
TTITLE11=Pauline
EXTD=
EXTT0=
EXTT1=
EXTT2=
EXTT3=
EXTT4=
EXTT5=
EXTT6=
EXTT7=
EXTT8=
EXTT9=
EXTT10=
EXTT11=
PLAYORDER=
